<svg width="104" height="104" viewBox="0 0 104 104" fill="none" xmlns="http://www.w3.org/2000/svg">
<path d="M52 104C80.7188 104 104 80.7188 104 52C104 23.2812 80.7188 0 52 0C23.2812 0 0 23.2812 0 52C0 80.7188 23.2812 104 52 104Z" fill="url(#paint0_linear)"/>
<mask id="mask0" mask-type="alpha" maskUnits="userSpaceOnUse" x="42" y="68" width="19" height="20">
<path d="M42.1182 87.6247H60.2506V68.6985H42.1182V87.6247Z" fill="white"/>
</mask>
<g mask="url(#mask0)">
<path fill-rule="evenodd" clip-rule="evenodd" d="M42.1214 77.5795L42.1183 78.5217C42.0962 83.5207 46.1468 87.6044 51.1458 87.6248H51.1836C56.1653 87.6264 60.2269 83.5853 60.249 78.5973L60.2506 78.279L51.0796 68.6985L42.1214 77.5795Z" fill="white"/>
</g>
<path fill-rule="evenodd" clip-rule="evenodd" d="M60.4743 25.8638L60.4821 24.0835C60.5042 19.0845 56.4536 14.9992 51.4546 14.9803C49.0535 14.9047 46.7533 15.9036 45.0329 17.6067C43.314 19.3129 42.3624 21.5848 42.3514 24.0063L42.3467 25.1627L51.5176 34.7433L60.4743 25.8638Z" fill="white"/>
<path fill-rule="evenodd" clip-rule="evenodd" d="M39.5057 26.2963L38.9969 25.7638C37.3221 24.015 35.0676 23.0224 32.6461 22.9704C30.2104 22.9247 27.9275 23.8117 26.1787 25.4849C22.5677 28.9431 22.4432 34.6921 25.8998 38.3031L27.2532 39.7179L46.4221 39.7982L49.5069 36.7402L39.5057 26.2963Z" fill="white"/>
<path fill-rule="evenodd" clip-rule="evenodd" d="M76.6974 65.1404L75.3456 63.7272L56.1782 63.6453L53.0918 66.7033L63.6003 77.6797C67.0569 81.2876 72.809 81.4136 76.4185 77.9586C80.0279 74.5004 80.154 68.7514 76.6974 65.1404Z" fill="white"/>
<path fill-rule="evenodd" clip-rule="evenodd" d="M78.5939 42.7727L77.2343 42.7664L67.983 51.9389L65.9695 53.935L63.1778 56.7031L60.3293 59.5264L59.0264 60.8199L78.5167 60.9034H78.5561C80.9635 60.9034 83.2275 59.9723 84.9384 58.277C86.6573 56.5708 87.6105 54.2974 87.6199 51.8758C87.642 46.8784 83.593 42.7947 78.5939 42.7727Z" fill="white"/>
<path fill-rule="evenodd" clip-rule="evenodd" d="M24.0798 42.5405H24.0389C21.6315 42.5405 19.3691 43.4716 17.6581 45.1669C15.9393 46.8715 14.9877 49.1434 14.9767 51.5665C14.9656 53.988 15.8983 56.2678 17.6046 57.9882C19.3093 59.7071 21.5811 60.6602 24.0026 60.6697L25.3639 60.676L43.5718 42.624L24.0798 42.5405Z" fill="white"/>
<path fill-rule="evenodd" clip-rule="evenodd" d="M77.0924 26.147C73.5727 22.5974 67.8206 22.5707 64.271 26.0935L25.5597 64.474C22.0085 67.9952 21.9833 73.7457 25.5045 77.2953C29.0226 80.8464 34.7763 80.8732 38.3259 77.3504L77.0372 38.9699C80.5884 35.4487 80.6104 29.6966 77.0924 26.147Z" fill="white"/>
<defs>
<linearGradient id="paint0_linear" x1="52" y1="0" x2="52" y2="104" gradientUnits="userSpaceOnUse">
<stop stop-color="#FF4E65"/>
<stop offset="1" stop-color="#FF2674"/>
</linearGradient>
</defs>
</svg>
